<?xml version="1.0" encoding="UTF-8"?>
<!DOCTYPE svg PUBLIC "-//W3C//DTD SVG 1.1//EN" "http://www.w3.org/Graphics/SVG/1.1/DTD/svg11.dtd">
<svg xmlns="http://www.w3.org/2000/svg" version="1.1" width="1052px" height="174px" style="shape-rendering:geometricPrecision; text-rendering:geometricPrecision; image-rendering:optimizeQuality; fill-rule:evenodd; clip-rule:evenodd" xmlns:xlink="http://www.w3.org/1999/xlink">
<g><path style="opacity:1" fill="#fafdfd" d="M -0.5,-0.5 C 350.167,-0.5 700.833,-0.5 1051.5,-0.5C 1051.5,57.5 1051.5,115.5 1051.5,173.5C 1000.5,173.5 949.5,173.5 898.5,173.5C 901.977,172.677 905.644,172.177 909.5,172C 910.883,170.539 910.549,169.706 908.5,169.5C 898.07,166.9 891.904,160.233 890,149.5C 889.5,119.502 889.333,89.5019 889.5,59.5C 909.5,59.5 929.5,59.5 949.5,59.5C 949.5,66.1667 949.5,72.8333 949.5,79.5C 936.833,79.5 924.167,79.5 911.5,79.5C 911.5,87.1667 911.5,94.8333 911.5,102.5C 922.833,102.5 934.167,102.5 945.5,102.5C 945.5,109.5 945.5,116.5 945.5,123.5C 934.167,123.5 922.833,123.5 911.5,123.5C 911.334,130.508 911.5,137.508 912,144.5C 913.076,147.079 914.909,148.746 917.5,149.5C 918.209,150.404 919.209,150.737 920.5,150.5C 930.319,151.494 940.319,151.827 950.5,151.5C 950.177,158.022 950.51,164.355 951.5,170.5C 953.167,170.5 954.833,170.5 956.5,170.5C 956.5,134.833 956.5,99.1667 956.5,63.5C 956.5,62.1667 956.5,60.8333 956.5,59.5C 972.543,59.0962 988.543,59.5962 1004.5,61C 1017.31,64.8062 1024.81,73.3062 1027,86.5C 1030.13,103.291 1024.63,116.291 1010.5,125.5C 1021.06,138.486 1028.39,153.153 1032.5,169.5C 1036.97,170.486 1041.64,170.819 1046.5,170.5C 1046.5,114.5 1046.5,58.5 1046.5,2.5C 761.833,2.5 477.167,2.5 192.5,2.5C 192.17,21.674 192.503,40.674 193.5,59.5C 217.833,59.5 242.167,59.5 266.5,59.5C 266.5,66.1667 266.5,72.8333 266.5,79.5C 258.167,79.5 249.833,79.5 241.5,79.5C 240.502,109.662 240.169,139.995 240.5,170.5C 257.503,170.667 274.503,170.5 291.5,170C 289.146,169.153 286.812,168.32 284.5,167.5C 277.937,162.375 273.937,155.708 272.5,147.5C 272.5,118.167 272.5,88.8333 272.5,59.5C 292.5,59.5 312.5,59.5 332.5,59.5C 332.5,66.1667 332.5,72.8333 332.5,79.5C 319.833,79.5 307.167,79.5 294.5,79.5C 294.5,87.1667 294.5,94.8333 294.5,102.5C 305.654,103.495 316.988,103.828 328.5,103.5C 328.5,110.167 328.5,116.833 328.5,123.5C 317.167,123.5 305.833,123.5 294.5,123.5C 294.334,129.176 294.501,134.843 295,140.5C 295.059,143.822 296.226,146.656 298.5,149C 310.578,150.126 322.578,150.959 334.5,151.5C 333.189,158.735 333.189,166.068 334.5,173.5C 222.833,173.5 111.167,173.5 -0.5,173.5C -0.5,115.5 -0.5,57.5 -0.5,-0.5 Z"/></g>
<g><path style="opacity:1" fill="#fafcfc" d="M 591.5,160.5 C 586.77,164.861 581.437,168.195 575.5,170.5C 585.992,171.33 596.659,171.83 607.5,172C 608.056,172.383 608.389,172.883 608.5,173.5C 517.167,173.5 425.833,173.5 334.5,173.5C 333.189,166.068 333.189,158.735 334.5,151.5C 334.5,157.833 334.5,164.167 334.5,170.5C 336.167,170.5 337.833,170.5 339.5,170.5C 339.5,133.833 339.5,97.1667 339.5,60.5C 353.661,59.3392 367.994,59.1725 382.5,60C 396.459,62.6256 405.292,70.7923 409,84.5C 412.761,102.128 407.261,115.961 392.5,126C 401.331,135.82 407.997,146.987 412.5,159.5C 413.379,163.362 414.713,167.029 416.5,170.5C 417.5,134.84 417.833,99.1729 417.5,63.5C 417.5,62.1667 417.5,60.8333 417.5,59.5C 424.175,59.3337 430.842,59.5004 437.5,60C 446.042,73.5849 454.709,87.0849 463.5,100.5C 472.56,87.4363 481.227,74.1029 489.5,60.5C 496.134,59.5033 502.8,59.17 509.5,59.5C 509.5,60.8333 509.5,62.1667 509.5,63.5C 509.5,99.1667 509.5,134.833 509.5,170.5C 521.554,170.837 532.221,170.504 541.5,169.5C 526.316,161.176 518.15,148.176 517,130.5C 516.333,120.167 516.333,109.833 517,99.5C 521.464,67.7154 539.631,54.2154 571.5,59C 590.197,64.0342 600.697,76.2008 603,95.5C 603.667,108.5 603.667,121.5 603,134.5C 601.573,144.301 597.739,152.967 591.5,160.5 Z"/></g>
<g><path style="opacity:1" fill="#fafcfc" d="M 693.5,167.5 C 690.946,168.606 688.279,169.439 685.5,170C 703.167,170.667 720.833,170.667 738.5,170C 736.35,168.589 734.016,167.755 731.5,167.5C 719.837,158.853 713.337,147.186 712,132.5C 711.116,118.792 711.449,105.125 713,91.5C 721.902,62.9553 741.069,52.4553 770.5,60C 787,66.4461 796.167,78.6128 798,96.5C 798.667,108.5 798.667,120.5 798,132.5C 796.419,144.829 791.252,155.329 782.5,164C 778.779,166.527 774.779,168.527 770.5,170C 788.842,170.833 807.176,170.666 825.5,169.5C 812.084,133.838 802.418,97.1716 796.5,59.5C 804.167,59.5 811.833,59.5 819.5,59.5C 823.715,88.9245 830.715,117.591 840.5,145.5C 850.314,117.577 857.314,88.91 861.5,59.5C 868.833,59.5 876.167,59.5 883.5,59.5C 878.065,97.6289 868.065,134.462 853.5,170C 872.005,170.829 890.338,170.662 908.5,169.5C 910.549,169.706 910.883,170.539 909.5,172C 905.644,172.177 901.977,172.677 898.5,173.5C 802.167,173.5 705.833,173.5 609.5,173.5C 610.172,172.733 611.005,172.066 612,171.5C 612.827,134.792 612.66,98.1251 611.5,61.5C 618.468,60.503 625.468,60.1697 632.5,60.5C 632.168,97.0038 632.502,133.337 633.5,169.5C 639.396,170.787 644.062,170.787 647.5,169.5C 646.313,167.025 644.313,166.025 641.5,166.5C 641.5,160.5 641.5,154.5 641.5,148.5C 642.833,148.5 644.167,148.5 645.5,148.5C 656.256,152.368 667.256,153.202 678.5,151C 684.445,148.795 687.445,144.461 687.5,138C 687.256,134.513 685.923,131.513 683.5,129C 674.948,125.362 666.281,122.029 657.5,119C 644.5,109.81 639.667,97.3096 643,81.5C 647.194,69.797 655.361,62.297 667.5,59C 680.793,57.5085 693.793,58.6752 706.5,62.5C 706.5,68.8333 706.5,75.1667 706.5,81.5C 697.044,79.9766 687.544,78.6433 678,77.5C 666.444,78.0775 662.11,84.0775 665,95.5C 665.785,97.286 666.951,98.786 668.5,100C 675.648,103.164 682.981,105.83 690.5,108C 707.148,117.142 712.981,130.975 708,149.5C 705.486,157.5 700.653,163.5 693.5,167.5 Z"/></g>
<g><path style="opacity:1" fill="#e7fffd" d="M 113.5,2.5 C 132.993,1.50293 152.66,1.1696 172.5,1.5C 172.83,20.674 172.497,39.674 171.5,58.5C 171.5,39.8333 171.5,21.1667 171.5,2.5C 152.5,2.5 133.5,2.5 114.5,2.5C 114.167,2.5 113.833,2.5 113.5,2.5 Z"/></g>
<g><path style="opacity:1" fill="#1f7658" d="M 114.5,3.5 C 114.5,3.16667 114.5,2.83333 114.5,2.5C 133.5,2.5 152.5,2.5 171.5,2.5C 171.5,21.1667 171.5,39.8333 171.5,58.5C 152.5,58.5 133.5,58.5 114.5,58.5C 114.5,58.1667 114.5,57.8333 114.5,57.5C 133.167,57.5 151.833,57.5 170.5,57.5C 170.5,39.5 170.5,21.5 170.5,3.5C 151.833,3.5 133.167,3.5 114.5,3.5 Z"/></g>
<g><path style="opacity:1" fill="#74a057" d="M 58.5,2.5 C 76.8333,2.5 95.1667,2.5 113.5,2.5C 113.833,2.5 114.167,2.5 114.5,2.5C 114.5,2.83333 114.5,3.16667 114.5,3.5C 114.5,21.5 114.5,39.5 114.5,57.5C 114.5,57.8333 114.5,58.1667 114.5,58.5C 114.167,58.5 113.833,58.5 113.5,58.5C 113.5,40.1667 113.5,21.8333 113.5,3.5C 95.5,3.5 77.5,3.5 59.5,3.5C 59.5,21.8333 59.5,40.1667 59.5,58.5C 59.1667,58.5 58.8333,58.5 58.5,58.5C 58.5,39.8333 58.5,21.1667 58.5,2.5 Z"/></g>
<g><path style="opacity:1" fill="#81a22b" d="M 113.5,58.5 C 95.5,58.5 77.5,58.5 59.5,58.5C 59.5,40.1667 59.5,21.8333 59.5,3.5C 77.5,3.5 95.5,3.5 113.5,3.5C 113.5,21.8333 113.5,40.1667 113.5,58.5 Z"/></g>
<g><path style="opacity:1" fill="#134e65" d="M 58.5,2.5 C 58.5,21.1667 58.5,39.8333 58.5,58.5C 58.1667,58.5 57.8333,58.5 57.5,58.5C 39.5,58.5 21.5,58.5 3.5,58.5C 3.5,39.8333 3.5,21.1667 3.5,2.5C 21.8333,2.5 40.1667,2.5 58.5,2.5 Z"/></g>
<g><path style="opacity:1" fill="#02517d" d="M 1041.5,3.5 C 1042.83,3.5 1044.17,3.5 1045.5,3.5C 1045.5,58.8333 1045.5,114.167 1045.5,169.5C 1041.17,169.5 1036.83,169.5 1032.5,169.5C 1028.39,153.153 1021.06,138.486 1010.5,125.5C 1024.63,116.291 1030.13,103.291 1027,86.5C 1024.81,73.3062 1017.31,64.8062 1004.5,61C 988.543,59.5962 972.543,59.0962 956.5,59.5C 956.5,60.8333 956.5,62.1667 956.5,63.5C 955.668,97.9976 955.168,132.664 955,167.5C 954.586,167.957 954.086,168.291 953.5,168.5C 952.504,162.202 952.17,155.868 952.5,149.5C 940.833,149.5 929.167,149.5 917.5,149.5C 914.909,148.746 913.076,147.079 912,144.5C 911.5,137.508 911.334,130.508 911.5,123.5C 922.833,123.5 934.167,123.5 945.5,123.5C 945.5,116.5 945.5,109.5 945.5,102.5C 934.167,102.5 922.833,102.5 911.5,102.5C 911.5,94.8333 911.5,87.1667 911.5,79.5C 924.167,79.5 936.833,79.5 949.5,79.5C 949.5,72.8333 949.5,66.1667 949.5,59.5C 929.5,59.5 909.5,59.5 889.5,59.5C 889.333,89.5019 889.5,119.502 890,149.5C 891.904,160.233 898.07,166.9 908.5,169.5C 890.338,170.662 872.005,170.829 853.5,170C 868.065,134.462 878.065,97.6289 883.5,59.5C 876.167,59.5 868.833,59.5 861.5,59.5C 857.314,88.91 850.314,117.577 840.5,145.5C 830.715,117.591 823.715,88.9245 819.5,59.5C 811.833,59.5 804.167,59.5 796.5,59.5C 802.418,97.1716 812.084,133.838 825.5,169.5C 807.176,170.666 788.842,170.833 770.5,170C 774.779,168.527 778.779,166.527 782.5,164C 791.252,155.329 796.419,144.829 798,132.5C 798.667,120.5 798.667,108.5 798,96.5C 796.167,78.6128 787,66.4461 770.5,60C 741.069,52.4553 721.902,62.9553 713,91.5C 711.449,105.125 711.116,118.792 712,132.5C 713.337,147.186 719.837,158.853 731.5,167.5C 731.611,168.117 731.944,168.617 732.5,169C 719.833,169.667 707.167,169.667 694.5,169C 693.944,168.617 693.611,168.117 693.5,167.5C 700.653,163.5 705.486,157.5 708,149.5C 712.981,130.975 707.148,117.142 690.5,108C 682.981,105.83 675.648,103.164 668.5,100C 666.951,98.786 665.785,97.286 665,95.5C 662.11,84.0775 666.444,78.0775 678,77.5C 687.544,78.6433 697.044,79.9766 706.5,81.5C 706.5,75.1667 706.5,68.8333 706.5,62.5C 693.793,58.6752 680.793,57.5085 667.5,59C 655.361,62.297 647.194,69.797 643,81.5C 639.667,97.3096 644.5,109.81 657.5,119C 666.281,122.029 674.948,125.362 683.5,129C 685.923,131.513 687.256,134.513 687.5,138C 687.445,144.461 684.445,148.795 678.5,151C 667.256,153.202 656.256,152.368 645.5,148.5C 643.833,147.167 642.167,147.167 640.5,148.5C 639.674,152.982 639.174,157.649 639,162.5C 638.19,128.319 638.357,94.1525 639.5,60C 639.508,56.788 638.508,56.1214 636.5,58C 638.848,59.6884 639.015,61.5217 637,63.5C 636.174,98.2084 636.34,132.875 637.5,167.5C 636.675,168.386 635.675,168.719 634.5,168.5C 634.5,131.833 634.5,95.1667 634.5,58.5C 626.648,58.1746 618.982,58.508 611.5,59.5C 611.167,59.5 610.833,59.5 610.5,59.5C 609.5,59.5 608.5,59.5 607.5,59.5C 609.46,96.051 610.127,132.718 609.5,169.5C 601.804,169.831 594.138,169.497 586.5,168.5C 588.197,167.636 589.363,166.303 590,164.5C 590.333,164.833 590.667,165.167 591,165.5C 591.494,163.866 591.66,162.199 591.5,160.5C 597.739,152.967 601.573,144.301 603,134.5C 603.667,121.5 603.667,108.5 603,95.5C 600.697,76.2008 590.197,64.0342 571.5,59C 539.631,54.2154 521.464,67.7154 517,99.5C 516.333,109.833 516.333,120.167 517,130.5C 518.15,148.176 526.316,161.176 541.5,169.5C 531.167,169.5 520.833,169.5 510.5,169.5C 510.832,133.996 510.498,98.6627 509.5,63.5C 509.5,62.1667 509.5,60.8333 509.5,59.5C 502.8,59.17 496.134,59.5033 489.5,60.5C 481.227,74.1029 472.56,87.4363 463.5,100.5C 454.709,87.0849 446.042,73.5849 437.5,60C 430.842,59.5004 424.175,59.3337 417.5,59.5C 417.5,60.8333 417.5,62.1667 417.5,63.5C 416.668,97.9976 416.168,132.664 416,167.5C 415.5,165.5 415,163.5 414.5,161.5C 414.253,160.287 413.586,159.62 412.5,159.5C 407.997,146.987 401.331,135.82 392.5,126C 407.261,115.961 412.761,102.128 409,84.5C 405.292,70.7923 396.459,62.6256 382.5,60C 367.994,59.1725 353.661,59.3392 339.5,60.5C 338.833,95.669 338.167,131.002 337.5,166.5C 336.667,132.172 336.167,97.8382 336,63.5C 335.5,78.8297 335.333,94.163 335.5,109.5C 333.5,109.5 331.5,109.5 329.5,109.5C 329.5,107.167 329.5,104.833 329.5,102.5C 317.833,102.5 306.167,102.5 294.5,102.5C 294.5,94.8333 294.5,87.1667 294.5,79.5C 307.167,79.5 319.833,79.5 332.5,79.5C 332.5,72.8333 332.5,66.1667 332.5,59.5C 312.34,58.5028 292.007,58.1695 271.5,58.5C 271.169,88.338 271.502,118.005 272.5,147.5C 273.937,155.708 277.937,162.375 284.5,167.5C 270.539,169.483 256.206,170.15 241.5,169.5C 241.5,139.5 241.5,109.5 241.5,79.5C 249.833,79.5 258.167,79.5 266.5,79.5C 266.5,72.8333 266.5,66.1667 266.5,59.5C 242.672,58.5024 218.672,58.1691 194.5,58.5C 194.167,41.1539 194.5,23.8205 195.5,6.5C 196.5,6 197.5,5.5 198.5,5C 478.833,4.5 759.166,4.33333 1039.5,4.5C 762.502,6.49919 485.169,7.16586 207.5,6.5C 207.5,7.5 207.5,8.5 207.5,9.5C 485.167,9.66667 762.834,9.5 1040.5,9C 1041.69,7.64699 1043.02,6.48032 1044.5,5.5C 1043.4,4.82434 1042.4,4.15767 1041.5,3.5 Z"/></g>
<g><path style="opacity:1" fill="#00517e" d="M 4.5,3.5 C 21.686,3.68605 39.0194,3.68605 56.5,3.5C 56.8196,21.2137 56.4863,38.8804 55.5,56.5C 38.5131,57.4995 21.5131,57.8328 4.5,57.5C 4.5,39.5 4.5,21.5 4.5,3.5 Z"/></g>
<g><path style="opacity:1" fill="#088059" d="M 114.5,3.5 C 133.167,3.5 151.833,3.5 170.5,3.5C 170.5,21.5 170.5,39.5 170.5,57.5C 151.833,57.5 133.167,57.5 114.5,57.5C 114.5,39.5 114.5,21.5 114.5,3.5 Z"/></g>
<g><path style="opacity:1" fill="#1b4f6b" d="M 1032.5,169.5 C 1036.83,169.5 1041.17,169.5 1045.5,169.5C 1045.5,114.167 1045.5,58.8333 1045.5,3.5C 1044.17,3.5 1042.83,3.5 1041.5,3.5C 1040.83,3.5 1040.17,3.5 1039.5,3.5C 757.833,3.33333 476.166,3.5 194.5,4C 193.507,22.4235 193.174,40.9235 193.5,59.5C 192.503,40.674 192.17,21.674 192.5,2.5C 477.167,2.5 761.833,2.5 1046.5,2.5C 1046.5,58.5 1046.5,114.5 1046.5,170.5C 1041.64,170.819 1036.97,170.486 1032.5,169.5 Z"/></g>
<g><path style="opacity:1" fill="#01507f" d="M 1039.5,3.5 C 1040.17,3.5 1040.83,3.5 1041.5,3.5C 1042.4,4.15767 1043.4,4.82434 1044.5,5.5C 1043.02,6.48032 1041.69,7.64699 1040.5,9C 762.834,9.5 485.167,9.66667 207.5,9.5C 207.5,8.5 207.5,7.5 207.5,6.5C 485.169,7.16586 762.502,6.49919 1039.5,4.5C 1039.5,4.16667 1039.5,3.83333 1039.5,3.5 Z"/></g>
<g><path style="opacity:1" fill="#064f74" d="M 1039.5,3.5 C 1039.5,3.83333 1039.5,4.16667 1039.5,4.5C 759.166,4.33333 478.833,4.5 198.5,5C 197.5,5.5 196.5,6 195.5,6.5C 194.5,23.8205 194.167,41.1539 194.5,58.5C 218.672,58.1691 242.672,58.5024 266.5,59.5C 242.167,59.5 217.833,59.5 193.5,59.5C 193.174,40.9235 193.507,22.4235 194.5,4C 476.166,3.5 757.833,3.33333 1039.5,3.5 Z"/></g>
<g><path style="opacity:1" fill="#bcbca8" d="M 3.5,58.5 C 21.5,58.5 39.5,58.5 57.5,58.5C 57.5,76.8333 57.5,95.1667 57.5,113.5C 39.5,113.5 21.5,113.5 3.5,113.5C 3.5,95.1667 3.5,76.8333 3.5,58.5 Z"/></g>
<g><path style="opacity:1" fill="#f0fefe" d="M 610.5,59.5 C 610.833,59.5 611.167,59.5 611.5,59.5C 618.833,59.5 626.167,59.5 633.5,59.5C 633.5,96.1667 633.5,132.833 633.5,169.5C 632.502,133.337 632.168,97.0038 632.5,60.5C 625.468,60.1697 618.468,60.503 611.5,61.5C 612.66,98.1251 612.827,134.792 612,171.5C 611.005,172.066 610.172,172.733 609.5,173.5C 609.167,173.5 608.833,173.5 608.5,173.5C 608.389,172.883 608.056,172.383 607.5,172C 596.659,171.83 585.992,171.33 575.5,170.5C 587.167,170.5 598.833,170.5 610.5,170.5C 610.5,133.5 610.5,96.5 610.5,59.5 Z"/></g>
<g><path style="opacity:1" fill="#9f7235" d="M 58.5,58.5 C 58.8333,58.5 59.1667,58.5 59.5,58.5C 77.5,58.5 95.5,58.5 113.5,58.5C 113.833,58.5 114.167,58.5 114.5,58.5C 114.5,58.8333 114.5,59.1667 114.5,59.5C 114.5,77.5 114.5,95.5 114.5,113.5C 114.167,113.5 113.833,113.5 113.5,113.5C 113.5,95.5 113.5,77.5 113.5,59.5C 95.5,59.5 77.5,59.5 59.5,59.5C 59.5,77.5 59.5,95.5 59.5,113.5C 59.1667,113.5 58.8333,113.5 58.5,113.5C 58.5,95.1667 58.5,76.8333 58.5,58.5 Z"/></g>
<g><path style="opacity:1" fill="#b16a23" d="M 113.5,113.5 C 95.5,113.5 77.5,113.5 59.5,113.5C 59.5,95.5 59.5,77.5 59.5,59.5C 77.5,59.5 95.5,59.5 113.5,59.5C 113.5,77.5 113.5,95.5 113.5,113.5 Z"/></g>
<g><path style="opacity:1" fill="#d2d1c2" d="M 114.5,59.5 C 114.5,59.1667 114.5,58.8333 114.5,58.5C 133.5,58.5 152.5,58.5 171.5,58.5C 171.5,76.8333 171.5,95.1667 171.5,113.5C 152.833,113.5 134.167,113.5 115.5,113.5C 115.83,95.3256 115.497,77.3256 114.5,59.5 Z"/></g>
<g><path style="opacity:1" fill="#134b6a" d="M 332.5,59.5 C 312.5,59.5 292.5,59.5 272.5,59.5C 272.5,88.8333 272.5,118.167 272.5,147.5C 271.502,118.005 271.169,88.338 271.5,58.5C 292.007,58.1695 312.34,58.5028 332.5,59.5 Z"/></g>
<g><path style="opacity:1" fill="#0b4f75" d="M 339.5,60.5 C 339.5,97.1667 339.5,133.833 339.5,170.5C 337.833,170.5 336.167,170.5 334.5,170.5C 334.5,164.167 334.5,157.833 334.5,151.5C 322.578,150.959 310.578,150.126 298.5,149C 296.226,146.656 295.059,143.822 295,140.5C 294.501,134.843 294.334,129.176 294.5,123.5C 305.833,123.5 317.167,123.5 328.5,123.5C 328.833,123.5 329.167,123.5 329.5,123.5C 329.5,118.833 329.5,114.167 329.5,109.5C 331.5,109.5 333.5,109.5 335.5,109.5C 335.333,94.163 335.5,78.8297 336,63.5C 336.167,97.8382 336.667,132.172 337.5,166.5C 338.167,131.002 338.833,95.669 339.5,60.5 Z"/></g>
<g><path style="opacity:1" fill="#124c6d" d="M 417.5,63.5 C 417.833,99.1729 417.5,134.84 416.5,170.5C 414.713,167.029 413.379,163.362 412.5,159.5C 413.586,159.62 414.253,160.287 414.5,161.5C 415,163.5 415.5,165.5 416,167.5C 416.168,132.664 416.668,97.9976 417.5,63.5 Z"/></g>
<g><path style="opacity:1" fill="#124b6c" d="M 509.5,63.5 C 510.498,98.6627 510.832,133.996 510.5,169.5C 520.833,169.5 531.167,169.5 541.5,169.5C 532.221,170.504 521.554,170.837 509.5,170.5C 509.5,134.833 509.5,99.1667 509.5,63.5 Z"/></g>
<g><path style="opacity:1" fill="#184c6a" d="M 610.5,59.5 C 610.5,96.5 610.5,133.5 610.5,170.5C 598.833,170.5 587.167,170.5 575.5,170.5C 581.437,168.195 586.77,164.861 591.5,160.5C 591.66,162.199 591.494,163.866 591,165.5C 590.667,165.167 590.333,164.833 590,164.5C 589.363,166.303 588.197,167.636 586.5,168.5C 594.138,169.497 601.804,169.831 609.5,169.5C 610.127,132.718 609.46,96.051 607.5,59.5C 608.5,59.5 609.5,59.5 610.5,59.5 Z"/></g>
<g><path style="opacity:1" fill="#0a4f75" d="M 640.5,148.5 C 640.17,154.868 640.504,161.202 641.5,167.5C 643.45,168.372 645.45,169.039 647.5,169.5C 644.062,170.787 639.396,170.787 633.5,169.5C 633.5,132.833 633.5,96.1667 633.5,59.5C 626.167,59.5 618.833,59.5 611.5,59.5C 618.982,58.508 626.648,58.1746 634.5,58.5C 634.5,95.1667 634.5,131.833 634.5,168.5C 635.675,168.719 636.675,168.386 637.5,167.5C 636.34,132.875 636.174,98.2084 637,63.5C 639.015,61.5217 638.848,59.6884 636.5,58C 638.508,56.1214 639.508,56.788 639.5,60C 638.357,94.1525 638.19,128.319 639,162.5C 639.174,157.649 639.674,152.982 640.5,148.5 Z"/></g>
<g><path style="opacity:1" fill="#23597d" d="M 193.5,79.5 C 193.206,109.521 193.539,139.521 194.5,169.5C 198.5,169.5 202.5,169.5 206.5,169.5C 206.338,167.473 206.505,165.473 207,163.5C 207.494,165.134 207.66,166.801 207.5,168.5C 210.5,168.5 213.5,168.5 216.5,168.5C 216.892,165.278 216.392,162.278 215,159.5C 214.5,132.835 214.333,106.169 214.5,79.5C 215.833,79.5 217.167,79.5 218.5,79.5C 218.5,109.833 218.5,140.167 218.5,170.5C 209.833,170.5 201.167,170.5 192.5,170.5C 192.169,139.995 192.502,109.662 193.5,79.5 Z"/></g>
<g><path style="opacity:1" fill="#01507e" d="M 193.5,79.5 C 200.5,79.5 207.5,79.5 214.5,79.5C 214.333,106.169 214.5,132.835 215,159.5C 216.392,162.278 216.892,165.278 216.5,168.5C 213.5,168.5 210.5,168.5 207.5,168.5C 207.66,166.801 207.494,165.134 207,163.5C 206.505,165.473 206.338,167.473 206.5,169.5C 202.5,169.5 198.5,169.5 194.5,169.5C 193.539,139.521 193.206,109.521 193.5,79.5 Z"/></g>
<g><path style="opacity:1" fill="#06517d" d="M 361.5,79.5 C 369.206,78.6646 376.539,79.8312 383.5,83C 386.518,86.0396 387.852,89.7063 387.5,94C 388.56,104.24 384.226,110.574 374.5,113C 370.179,113.499 365.846,113.666 361.5,113.5C 361.5,102.167 361.5,90.8333 361.5,79.5 Z"/></g>
<g><path style="opacity:1" fill="#08517e" d="M 979.5,79.5 C 986.359,79.039 993.026,79.8723 999.5,82C 1004,85.1535 1006,89.4869 1005.5,95C 1005.78,104.473 1001.45,110.473 992.5,113C 988.179,113.499 983.846,113.666 979.5,113.5C 979.5,102.167 979.5,90.8333 979.5,79.5 Z"/></g>
<g><path style="opacity:1" fill="#04517d" d="M 748.5,78.5 C 762.911,75.775 771.744,81.4417 775,95.5C 777.595,110.677 776.928,125.677 773,140.5C 769.374,149.29 762.708,153.29 753,152.5C 741.987,150.543 735.987,143.876 735,132.5C 732.428,117.663 733.094,102.996 737,88.5C 739.823,83.8325 743.657,80.4992 748.5,78.5 Z"/></g>
<g><path style="opacity:1" fill="#04517d" d="M 552.5,78.5 C 568.954,75.4641 578.454,82.1308 581,98.5C 581.785,110.865 581.451,123.198 580,135.5C 575.824,150.175 566.324,155.341 551.5,151C 546.123,147.957 542.623,143.457 541,137.5C 539.476,124.204 539.143,110.871 540,97.5C 540.696,88.7482 544.863,82.4148 552.5,78.5 Z"/></g>
<g><path style="opacity:1" fill="#005285" d="M 886.5,59.5 C 887.833,74.3183 888.499,89.485 888.5,105C 888.167,120.167 887.833,135.333 887.5,150.5C 886.605,148.754 885.938,146.92 885.5,145C 886.488,116.532 886.821,88.0318 886.5,59.5 Z"/></g>
<g><path style="opacity:1" fill="#93b0c6" d="M 294.5,102.5 C 306.167,102.5 317.833,102.5 329.5,102.5C 329.5,104.833 329.5,107.167 329.5,109.5C 329.5,114.167 329.5,118.833 329.5,123.5C 329.167,123.5 328.833,123.5 328.5,123.5C 328.5,116.833 328.5,110.167 328.5,103.5C 316.988,103.828 305.654,103.495 294.5,102.5 Z"/></g>
<g><path style="opacity:1" fill="#6b90ab" d="M 486.5,170.5 C 486.5,170.167 486.5,169.833 486.5,169.5C 486.831,146.994 486.497,124.66 485.5,102.5C 485.783,101.711 486.283,101.044 487,100.5C 487.83,124.004 487.663,147.337 486.5,170.5 Z"/></g>
<g><path style="opacity:1" fill="#d3d0c1" d="M 57.5,58.5 C 57.8333,58.5 58.1667,58.5 58.5,58.5C 58.5,76.8333 58.5,95.1667 58.5,113.5C 58.5,132.5 58.5,151.5 58.5,170.5C 40.1667,170.5 21.8333,170.5 3.5,170.5C 3.5,151.5 3.5,132.5 3.5,113.5C 21.5,113.5 39.5,113.5 57.5,113.5C 57.5,95.1667 57.5,76.8333 57.5,58.5 Z"/></g>
<g><path style="opacity:1" fill="#bdbca8" d="M 114.5,59.5 C 115.497,77.3256 115.83,95.3256 115.5,113.5C 134.167,113.5 152.833,113.5 171.5,113.5C 171.5,132.5 171.5,151.5 171.5,170.5C 152.5,170.5 133.5,170.5 114.5,170.5C 114.5,151.5 114.5,132.5 114.5,113.5C 114.5,95.5 114.5,77.5 114.5,59.5 Z"/></g>
<g><path style="opacity:1" fill="#00507e" d="M 329.5,123.5 C 330.166,119.647 330.833,115.647 331.5,111.5C 332.167,114.5 332.833,117.5 333.5,120.5C 334.281,119.271 334.781,117.938 335,116.5C 335.497,118.81 335.663,121.143 335.5,123.5C 334.5,123.5 333.5,123.5 332.5,123.5C 332.354,125.942 333.187,126.609 335,125.5C 335.5,132.158 335.666,138.825 335.5,145.5C 331.145,143.181 329.145,144.514 329.5,149.5C 326.813,149.664 324.146,149.497 321.5,149C 321.741,147.438 321.241,145.938 320,144.5C 314.593,145.473 309.093,145.807 303.5,145.5C 303.799,143.396 303.466,141.396 302.5,139.5C 301.115,143.378 299.949,143.378 299,139.5C 298.333,140.833 297.667,140.833 297,139.5C 296.779,134.78 296.279,130.113 295.5,125.5C 306.993,124.833 318.326,124.167 329.5,123.5 Z"/></g>
<g><path style="opacity:1" fill="#02507d" d="M 440.5,102.5 C 446.392,111.267 452.059,120.267 457.5,129.5C 459.167,129.833 460.833,130.167 462.5,130.5C 465.011,130.712 467.178,130.045 469,128.5C 474.329,119.682 479.829,111.015 485.5,102.5C 486.497,124.66 486.831,146.994 486.5,169.5C 471.169,168.187 455.835,168.187 440.5,169.5C 440.5,147.167 440.5,124.833 440.5,102.5 Z"/></g>
<g><path style="opacity:1" fill="#08507a" d="M 979.5,133.5 C 983.182,133.335 986.848,133.501 990.5,134C 999.759,144.585 1006.43,156.585 1010.5,170C 1000.17,170.5 989.839,170.666 979.5,170.5C 979.5,158.167 979.5,145.833 979.5,133.5 Z"/></g>
<g><path style="opacity:1" fill="#015180" d="M 980.5,134.5 C 983.518,134.335 986.518,134.502 989.5,135C 987.568,136.352 986.234,138.185 985.5,140.5C 983.38,139.128 982.38,139.795 982.5,142.5C 983.833,142.5 985.167,142.5 986.5,142.5C 986.533,149.87 986.699,157.203 987,164.5C 984.878,165.22 984.378,166.387 985.5,168C 983.866,168.494 982.199,168.66 980.5,168.5C 980.5,157.167 980.5,145.833 980.5,134.5 Z"/></g>
<g><path style="opacity:1" fill="#134c6c" d="M 956.5,63.5 C 956.5,99.1667 956.5,134.833 956.5,170.5C 954.833,170.5 953.167,170.5 951.5,170.5C 951.5,163.833 951.5,157.167 951.5,150.5C 941.167,150.5 930.833,150.5 920.5,150.5C 919.209,150.737 918.209,150.404 917.5,149.5C 929.167,149.5 940.833,149.5 952.5,149.5C 952.17,155.868 952.504,162.202 953.5,168.5C 954.086,168.291 954.586,167.957 955,167.5C 955.168,132.664 955.668,97.9976 956.5,63.5 Z"/></g>
<g><path style="opacity:1" fill="#c9e3f2" d="M 920.5,150.5 C 930.833,150.5 941.167,150.5 951.5,150.5C 951.5,157.167 951.5,163.833 951.5,170.5C 950.51,164.355 950.177,158.022 950.5,151.5C 940.319,151.827 930.319,151.494 920.5,150.5 Z"/></g>
<g><path style="opacity:1" fill="#c4e1f0" d="M 645.5,148.5 C 644.167,148.5 642.833,148.5 641.5,148.5C 641.5,154.5 641.5,160.5 641.5,166.5C 644.313,166.025 646.313,167.025 647.5,169.5C 645.45,169.039 643.45,168.372 641.5,167.5C 640.504,161.202 640.17,154.868 640.5,148.5C 642.167,147.167 643.833,147.167 645.5,148.5 Z"/></g>
<g><path style="opacity:1" fill="#06517b" d="M 361.5,133.5 C 367.786,132.179 372.953,133.846 377,138.5C 384.042,148.251 389.209,158.918 392.5,170.5C 382.167,170.5 371.833,170.5 361.5,170.5C 361.5,158.167 361.5,145.833 361.5,133.5 Z"/></g>
<g><path style="opacity:1" fill="#864238" d="M 58.5,113.5 C 58.8333,113.5 59.1667,113.5 59.5,113.5C 59.5,132.167 59.5,150.833 59.5,169.5C 77.4101,169.826 95.2434,169.492 113,168.5C 113.5,150.17 113.667,131.836 113.5,113.5C 113.833,113.5 114.167,113.5 114.5,113.5C 114.5,132.5 114.5,151.5 114.5,170.5C 95.8333,170.5 77.1667,170.5 58.5,170.5C 58.5,151.5 58.5,132.5 58.5,113.5 Z"/></g>
<g><path style="opacity:1" fill="#9f372f" d="M 59.5,113.5 C 77.5,113.5 95.5,113.5 113.5,113.5C 113.667,131.836 113.5,150.17 113,168.5C 95.2434,169.492 77.4101,169.826 59.5,169.5C 59.5,150.833 59.5,132.167 59.5,113.5 Z"/></g>
<g><path style="opacity:1" fill="#184a68" d="M 241.5,79.5 C 241.5,109.5 241.5,139.5 241.5,169.5C 256.206,170.15 270.539,169.483 284.5,167.5C 286.812,168.32 289.146,169.153 291.5,170C 274.503,170.5 257.503,170.667 240.5,170.5C 240.169,139.995 240.502,109.662 241.5,79.5 Z"/></g>
<g><path style="opacity:1" fill="#124c6c" d="M 440.5,102.5 C 440.5,124.833 440.5,147.167 440.5,169.5C 455.835,168.187 471.169,168.187 486.5,169.5C 486.5,169.833 486.5,170.167 486.5,170.5C 470.833,170.5 455.167,170.5 439.5,170.5C 439.167,147.091 439.501,124.425 440.5,102.5 Z"/></g>
<g><path style="opacity:1" fill="#1d4d69" d="M 693.5,167.5 C 693.611,168.117 693.944,168.617 694.5,169C 707.167,169.667 719.833,169.667 732.5,169C 731.944,168.617 731.611,168.117 731.5,167.5C 734.016,167.755 736.35,168.589 738.5,170C 720.833,170.667 703.167,170.667 685.5,170C 688.279,169.439 690.946,168.606 693.5,167.5 Z"/></g>
</svg>
